<?xml version="1.0" encoding="utf-8"?><!-- Uploaded to: SVG Repo, www.svgrepo.com, Generator: SVG Repo Mixer Tools -->
<svg width="800px" height="800px" viewBox="0 0 24 24" xmlns="http://www.w3.org/2000/svg" id="cart-close" class="icon glyph"><path d="M22,8.24l-1.81,7.25A2,2,0,0,1,18.22,17H9.8a2,2,0,0,1-2-1.55L5.2,4H3A1,1,0,0,1,3,2H5.2a2,2,0,0,1,2,1.55L9.8,15h8.42L20,7.76A1,1,0,0,1,22,8.24ZM16.5,19A1.5,1.5,0,1,0,18,20.5,1.5,1.5,0,0,0,16.5,19Zm-5,0A1.5,1.5,0,1,0,13,20.5,1.5,1.5,0,0,0,11.5,19Zm-.21-9.29a1,1,0,0,0,1.42,0L14,8.41l1.29,1.3a1,1,0,0,0,1.42,0,1,1,0,0,0,0-1.42L15.41,7l1.3-1.29a1,1,0,1,0-1.42-1.42L14,5.59l-1.29-1.3a1,1,0,0,0-1.42,1.42L12.59,7l-1.3,1.29A1,1,0,0,0,11.29,9.71Z" style="fill:#231f20"></path></svg>