<?xml version="1.0" encoding="utf-8"?><!-- Uploaded to: SVG Repo, www.svgrepo.com, Generator: SVG Repo Mixer Tools -->
<svg fill="#000000" width="800px" height="800px" viewBox="0 0 1024 1024" xmlns="http://www.w3.org/2000/svg"><path d="M941.345 840.998c22.625 0 40.96-18.335 40.96-40.96V225.277c0-22.618-18.339-40.96-40.96-40.96H376.937c-22.621 0-40.96 18.342-40.96 40.96v574.761c0 22.625 18.335 40.96 40.96 40.96h564.408zm0 40.96H376.937c-45.246 0-81.92-36.674-81.92-81.92V225.277c0-45.239 36.677-81.92 81.92-81.92h564.408c45.243 0 81.92 36.681 81.92 81.92v574.761c0 45.246-36.674 81.92-81.92 81.92z"/><path d="M695.806 414.73c-20.89-10.666-52.444-10.666-73.336.001l-23.066 11.774V184.221c0-11.311-9.169-20.48-20.48-20.48s-20.48 9.169-20.48 20.48v245.023c0 32.2 28.494 49.635 57.164 34.978l25.486-13.009c9.195-4.694 26.895-4.694 36.089-.001l25.499 13.016c28.671 14.648 57.152-2.783 57.152-34.983V184.222c0-11.311-9.169-20.48-20.48-20.48s-20.48 9.169-20.48 20.48v242.284l-23.068-11.775zm-505.694-59.017H20.476c-11.311 0-20.48 9.169-20.48 20.48s9.169 20.48 20.48 20.48h169.636c11.311 0 20.48-9.169 20.48-20.48s-9.169-20.48-20.48-20.48zm0 245.76H20.476c-11.311 0-20.48 9.169-20.48 20.48s9.169 20.48 20.48 20.48h169.636c11.311 0 20.48-9.169 20.48-20.48s-9.169-20.48-20.48-20.48zm39.448-122.88H59.924c-11.311 0-20.48 9.169-20.48 20.48s9.169 20.48 20.48 20.48H229.56c11.311 0 20.48-9.169 20.48-20.48s-9.169-20.48-20.48-20.48z"/></svg>